<svg id="Layer_1" data-name="Layer 1" xmlns="http://www.w3.org/2000/svg" viewBox="0 0 103.05 77.97"><defs><style>.cls-1{fill:#3b4131;}</style></defs><path class="cls-1" d="M61.46,20.82l-20.78-.05,0-13.17a2.69,2.69,0,0,1,2.69-2.69l54.74,0a2.7,2.7,0,0,1,2.7,2.69v10.5a2.69,2.69,0,0,1-2.7,2.69H80.37V67.65a2.68,2.68,0,0,1-2.69,2.69H64.16a2.69,2.69,0,0,1-2.7-2.69Z"/><path class="cls-1" d="M40.67,41.75c0,9.16-4.15,13.46-10.5,13.46s-10.5-4.49-10.5-13.92V7.64A2.7,2.7,0,0,0,17,4.94H6.32a2.69,2.69,0,0,0-2.69,2.7v34c0,20.46,10.18,29.9,26.38,29.9s26.7-9.25,26.7-30.37V23.5h-16Z"/></svg>